<?xml version="1.0" encoding="UTF-8"?>
<!DOCTYPE svg PUBLIC "-//W3C//DTD SVG 1.1//EN" "http://www.w3.org/Graphics/SVG/1.1/DTD/svg11.dtd">
<!-- Creator: CorelDRAW -->
<svg xmlns="http://www.w3.org/2000/svg" xml:space="preserve" width="0.98in" height="0.18in" style="shape-rendering:geometricPrecision; text-rendering:geometricPrecision; image-rendering:optimizeQuality; fill-rule:evenodd; clip-rule:evenodd"
viewBox="0 0 0.98 0.18"
 xmlns:xlink="http://www.w3.org/1999/xlink">
 <defs>
  <style type="text/css">
   <![CDATA[
    .fil6 {fill:#00A7B7}
    .fil0 {fill:#00ABB8}
    .fil1 {fill:white;fill-rule:nonzero}
    .fil9 {fill:#007F8B;fill-opacity:0.501961}
    .fil12 {fill:url(#id0)}
    .fil5 {fill:url(#id1)}
    .fil13 {fill:url(#id2)}
    .fil7 {fill:url(#id3)}
    .fil2 {fill:url(#id4)}
    .fil4 {fill:url(#id5)}
    .fil10 {fill:url(#id6)}
    .fil11 {fill:url(#id7)}
    .fil8 {fill:url(#id8)}
    .fil3 {fill:url(#id9)}
   ]]>
  </style>
  <linearGradient id="id0" gradientUnits="userSpaceOnUse" x1="0.0446535" y1="0.0294803" x2="0.0899646" y2="0.0294803">
   <stop offset="0" style="stop-color:#00A7B7"/>
   <stop offset="0.121569" style="stop-color:#00A8B8"/>
   <stop offset="0.411765" style="stop-color:white"/>
   <stop offset="0.478431" style="stop-color:white"/>
   <stop offset="0.909804" style="stop-color:#00979F"/>
   <stop offset="1" style="stop-color:#00949C"/>
  </linearGradient>
  <linearGradient id="id1" gradientUnits="userSpaceOnUse" x1="0.0970748" y1="0.114976" x2="0.162319" y2="0.110319">
   <stop offset="0" style="stop-color:#00A7B7"/>
   <stop offset="0.168627" style="stop-color:#00A9B9"/>
   <stop offset="0.411765" style="stop-color:white"/>
   <stop offset="0.478431" style="stop-color:white"/>
   <stop offset="0.819608" style="stop-color:#3BB3C2"/>
   <stop offset="1" style="stop-color:#3BB3C2"/>
  </linearGradient>
  <linearGradient id="id2" gradientUnits="userSpaceOnUse" x1="0.155965" y1="0.0840945" x2="0.0733031" y2="0.0955748">
   <stop offset="0" style="stop-color:#00A7B7"/>
   <stop offset="0.121569" style="stop-color:#00A8B8"/>
   <stop offset="0.411765" style="stop-color:white"/>
   <stop offset="0.478431" style="stop-color:white"/>
   <stop offset="0.788235" style="stop-color:#009DA5"/>
   <stop offset="1" style="stop-color:#00949C"/>
  </linearGradient>
  <linearGradient id="id3" gradientUnits="userSpaceOnUse" x1="0.102457" y1="0.0299528" x2="0.0321693" y2="0.123669">
   <stop offset="0" style="stop-color:#00A7B7"/>
   <stop offset="0.329412" style="stop-color:#00A6B5"/>
   <stop offset="1" style="stop-color:#00949C"/>
  </linearGradient>
  <linearGradient id="id4" gradientUnits="userSpaceOnUse" xlink:href="#id3" x1="0.143224" y1="0.156949" x2="0.0761142" y2="0.0690079">
  </linearGradient>
  <linearGradient id="id5" gradientUnits="userSpaceOnUse" x1="0.0929528" y1="0.0937165" x2="0.118248" y2="0.14937">
   <stop offset="0" style="stop-color:#017B81"/>
   <stop offset="0.588235" style="stop-color:#00969E"/>
   <stop offset="1" style="stop-color:#0094B3"/>
  </linearGradient>
  <radialGradient id="id6" gradientUnits="userSpaceOnUse" cx="0.0541063" cy="0.0363858" r="0.259571" fx="0.0541063" fy="0.0363858">
   <stop offset="0" style="stop-color:white"/>
   <stop offset="0.439216" style="stop-color:#5CBBC5"/>
   <stop offset="0.560784" style="stop-color:#00A8B7"/>
   <stop offset="0.729412" style="stop-color:#00949C"/>
   <stop offset="1" style="stop-color:#00949C"/>
   <stop offset="1" style="stop-color:#00949C"/>
  </radialGradient>
  <radialGradient id="id7" gradientUnits="userSpaceOnUse" cx="0.0766732" cy="0.0530669" r="0.216197" fx="0.0766732" fy="0.0530669">
   <stop offset="0" style="stop-color:#6CC0CB"/>
   <stop offset="0.180392" style="stop-color:#61BDC7"/>
   <stop offset="0.34902" style="stop-color:#2FB0BC"/>
   <stop offset="0.568627" style="stop-color:#00A1AE"/>
   <stop offset="1" style="stop-color:#00949C"/>
   <stop offset="1" style="stop-color:#00949C"/>
  </radialGradient>
  <radialGradient id="id8" gradientUnits="userSpaceOnUse" cx="0.101933" cy="-0.00541339" r="0.100929" fx="0.101933" fy="-0.00541339">
   <stop offset="0" style="stop-color:white"/>
   <stop offset="0.239216" style="stop-color:#5CBBC5"/>
   <stop offset="0.560784" style="stop-color:#00A8B7"/>
   <stop offset="0.729412" style="stop-color:#00949C"/>
   <stop offset="1" style="stop-color:#00949C"/>
   <stop offset="1" style="stop-color:#00949C"/>
  </radialGradient>
  <radialGradient id="id9" gradientUnits="userSpaceOnUse" cx="0.220224" cy="0.111102" r="0.244976" fx="0.220224" fy="0.111102">
   <stop offset="0" style="stop-color:white"/>
   <stop offset="0.301961" style="stop-color:#5CBBC5"/>
   <stop offset="0.560784" style="stop-color:#00A8B7"/>
   <stop offset="0.729412" style="stop-color:#00949C"/>
   <stop offset="1" style="stop-color:#00949C"/>
   <stop offset="1" style="stop-color:#00949C"/>
  </radialGradient>
 </defs>
 <g id="Layer_x0020_1">
  <metadata id="CorelCorpID_0Corel-Layer"/>
  <g id="_274847632">
   <path id="_276379168" class="fil0" d="M0.219457 0.0325118c0.000708661,0.000665354 0.00131496,0.00142913 0.00181102,0.00227953 0.000909449,0.00156299 0.00136614,0.00327953 0.00140551,0.00508268l0 8.66142e-005 0 0.0472323 -0.00174016 0.0017874 0 -0.051189 -3.93701e-006 -9.05512e-005c-3.93701e-005,-0.00180315 -0.000496063,-0.00351969 -0.00140551,-0.00507874l-6.69291e-005 -0.000110236zm0.0742953 -3.54331e-005c0.000728346,0.000692913 0.00135827,0.00148819 0.0018622,0.00237402 0.000854331,0.00149606 0.00129134,0.0031378 0.00133465,0.00485433l0 9.84252e-005c0,0.00145669 -0.000322835,0.00286614 -0.000988189,0.00419291 -0.000574803,0.00111024 -0.00134252,0.00213386 -0.00222835,0.00301969l-0.0368425 0.0365472 -0.00175197 -0.00216142 0.0368543 -0.0365512c0.000885827,-0.000893701 0.00165354,-0.00191732 0.00222835,-0.00302362 0.000661417,-0.00132677 0.000984252,-0.00274016 0.000984252,-0.00419291l0 -9.84252e-005c-4.33071e-005,-0.00172047 -0.000476378,-0.00335827 -0.00133071,-0.00485433l-0.000122047 -0.000204724 0 0zm0.00174803 0.0987165l0.00137402 0.00169685c0.00073622,0.000913386 0.00135433,0.00191732 0.00183071,0.00298425l1.9685e-005 5.90551e-005 2.3622e-005 5.90551e-005c0.000511811,0.00125197 0.000740157,0.00261024 0.000740157,0.00396063l0 9.05512e-005c-4.33071e-005,0.00177559 -0.000507874,0.00346063 -0.00140551,0.00499606 -0.000885827,0.00151575 -0.00211417,0.00277559 -0.00361417,0.00369291 -0.00155906,0.000952756 -0.00332283,0.00142913 -0.00514961,0.00147244l-8.26772e-005 0 -9.05512e-005 0c-0.00181496,-3.93701e-005 -0.00355906,-0.000476378 -0.00508268,-0.00149213 -0.00120079,-0.000783465 -0.00222047,-0.00176378 -0.00304331,-0.00293701l-0.000846457 -0.00105118c0.000633858,0.000688976 0.00135039,0.00129921 0.00214567,0.00181496 0.00152362,0.00101969 0.00326772,0.00145276 0.00508268,0.00149213l9.05512e-005 3.93701e-006 8.66142e-005 -3.93701e-006c0.00182677,-3.93701e-005 0.00358661,-0.000515748 0.00514961,-0.00147244 0.00149606,-0.000913386 0.00272835,-0.00217717 0.00361024,-0.00368898 0.000897638,-0.00153937 0.0013622,-0.00322047 0.00140551,-0.005l0 -9.05512e-005c0,-0.00135039 -0.000228346,-0.00270472 -0.00073622,-0.00396063l-2.3622e-005 -5.51181e-005 -2.3622e-005 -5.90551e-005c-0.000397638,-0.000885827 -0.000889764,-0.00172835 -0.00146457,-0.00251181l3.93701e-006 0zm-0.0162087 0.0124252l-0.036878 -0.0459134 -0.0197402 0.0197402 -3.93701e-006 0.0225984c-3.93701e-005,0.0017874 -0.0005,0.00352756 -0.00140157,0.0050748 -0.000893701,0.0015315 -0.00214567,0.0027874 -0.0036811,0.0036811 -0.00156299,0.000909449 -0.00327953,0.00136614 -0.00508268,0.00140551l-8.66142e-005 0 -9.05512e-005 0c-0.00177953,-4.33071e-005 -0.00344488,-0.000515748 -0.00500394,-0.0014252 -0.00144882,-0.000870079 -0.00263386,-0.00207087 -0.00350787,-0.00351181 0.000535433,0.000503937 0.00112205,0.000956693 0.00176772,0.00134252 0.00155906,0.000905512 0.00322441,0.00137795 0.00500394,0.00142126l8.66142e-005 3.93701e-006 8.66142e-005 -3.93701e-006c0.00180709,-3.93701e-005 0.00352362,-0.000496063 0.00508268,-0.00140551 0.00153543,-0.000893701 0.00279134,-0.00214567 0.0036811,-0.0036811 0.000905512,-0.00154724 0.0013622,-0.00328346 0.00140551,-0.0050748l3.93701e-006 -0.0225984 0.0197362 -0.0197402 0.0386102 0.0480748 1.1811e-005 1.1811e-005 0 0zm0.0957717 -0.00572835c-0.00273622,0.00266535 -0.00575197,0.00500394 -0.00899606,0.00699606 -0.00343701,0.00212992 -0.0071811,0.00367323 -0.0110669,0.00472835 -0.00438189,0.00122047 -0.009,0.00167717 -0.0135591,0.00170079 -0.00598031,-2.75591e-005 -0.0118504,-0.00110236 -0.017378,-0.00338976 -0.00540945,-0.00222441 -0.0101969,-0.00543307 -0.0142992,-0.00959055 -0.00140157,-0.00140945 -0.00268898,-0.00290551 -0.00387008,-0.00447244 0.000681102,0.000787402 0.00138583,0.00155512 0.00212598,0.00230315 0.00410236,0.00415748 0.0088937,0.0073622 0.0142992,0.00958661 0.0055315,0.00229134 0.0114016,0.00336614 0.0173819,0.0033937 0.00455906,-2.75591e-005 0.00917717,-0.000480315 0.0135591,-0.00170472 0.00388583,-0.00105118 0.00762598,-0.00259449 0.0110669,-0.00472835 0.00324409,-0.00198819 0.00625984,-0.00432677 0.00899213,-0.00699606 0.000948819,-0.000850394 0.00174016,-0.00188189 0.00229134,-0.0030315 0.000559055,-0.00120866 0.000854331,-0.00250787 0.000854331,-0.00381102 -2.75591e-005,-0.00164173 -0.000444882,-0.00317323 -0.00122441,-0.00452756 8.66142e-005,7.87402e-005 0.000173228,0.00015748 0.000255906,0.000244094 0.00173228,0.00173228 0.00266929,0.0039685 0.0027126,0.00645669 0,0.00129921 -0.000299213,0.00260236 -0.000854331,0.00381102 -0.000551181,0.00114961 -0.00134252,0.0021811 -0.00229134,0.0030315l0 0zm-0.00420472 -0.0662402c0.00149213,0.00174016 0.00284646,0.0036063 0.00404724,0.00559055 0.00230315,0.00387402 0.00405512,0.00802362 0.00518504,0.0123819 0.000870079,0.00327953 0.00141732,0.00662992 0.00164567,0.0100118 -3.93701e-005,0.000854331 -6.29921e-005,0.00171654 -6.69291e-005,0.00258268l0 0.000334646c3.93701e-006,0.000767717 2.3622e-005,0.00154331 5.51181e-005,0.00231102 -0.00019685,0.00122441 -0.000614173,0.0023937 -0.00127953,0.00345669 -0.000866142,0.00138976 -0.00204331,0.00254724 -0.00349213,0.00336614 -0.00146063,0.000795276 -0.00304331,0.00122441 -0.0047126,0.00122441l-0.0547795 0c0.000484252,0.00214567 0.0011811,0.00424409 0.0021378,0.00624016 0.000641732,0.0013189 0.00137402,0.00258268 0.00221654,0.00376772 -0.0016063,-0.00177165 -0.00290945,-0.00377953 -0.00395669,-0.00594094 -0.00096063,-0.00199606 -0.00165748,-0.00409055 -0.00214173,-0.00624016l0.0547835 0c0.00166535,0 0.00325197,-0.000429134 0.0047126,-0.00122441 0.00144882,-0.000814961 0.00262205,-0.00197244 0.00349213,-0.00336614 0.000929134,-0.00148819 0.00137008,-0.00318898 0.00141339,-0.00493701l0 -9.44882e-005c0,-0.00461811 -0.000582677,-0.00920079 -0.00176772,-0.0136654 -0.00113386,-0.00435433 -0.00288189,-0.00850394 -0.00518504,-0.0123819 -0.000716535,-0.0011811 -0.00148425,-0.0023189 -0.00230709,-0.00341732l0 0zm-0.0160984 0.010626c-0.00172047,-0.00187402 -0.00375197,-0.00334646 -0.00607087,-0.00445276 -0.00286614,-0.00135827 -0.00600394,-0.00187402 -0.00912992,-0.0018937 -0.00291339,1.9685e-005 -0.00570866,0.000551181 -0.00838189,0.00177165 -0.00262992,0.00117717 -0.00490945,0.00285433 -0.00687402,0.00495669 -0.00212992,0.00226772 -0.00376772,0.00488189 -0.00501181,0.00772441 -0.0005,0.00114173 -0.000917323,0.00230709 -0.00126772,0.00349606l-0.00230315 0c0.000433071,-0.00194094 0.0010315,-0.00384252 0.00182677,-0.00566535 0.00124409,-0.00284646 0.00288583,-0.00545669 0.00501181,-0.00772835 0.00196457,-0.00209843 0.00424803,-0.00377953 0.00687402,-0.00495669 0.00267323,-0.00121654 0.0054685,-0.00174803 0.00838583,-0.00177165 0.00312205,2.3622e-005 0.00625984,0.00053937 0.00912992,0.00190157 0.00257087,0.00121654 0.00478346,0.00289764 0.00662205,0.00507087 0.000417323,0.000503937 0.000818898,0.00101575 0.00118898,0.00154724l0 0zm0.107114 0.0556142c-0.00272835,0.00266535 -0.00574409,0.00500394 -0.00899213,0.00699606 -0.00344094,0.00212992 -0.00717717,0.00367323 -0.011063,0.00472835 -0.00438583,0.00122047 -0.009,0.00167717 -0.013563,0.00170079 -0.00598031,-2.75591e-005 -0.0118504,-0.00110236 -0.017378,-0.00338976 -0.00540945,-0.00222441 -0.0102008,-0.00543307 -0.0143031,-0.00959055 -0.00139764,-0.00140945 -0.00268504,-0.00290551 -0.0038622,-0.00447244 0.000673228,0.000787402 0.00138583,0.00155512 0.00212205,0.00230315 0.00410236,0.00415748 0.0088937,0.0073622 0.0143031,0.00958661 0.00552756,0.00229134 0.0113937,0.00336614 0.017378,0.0033937 0.00455906,-2.75591e-005 0.00917717,-0.000480315 0.0135591,-0.00170472 0.00388583,-0.00105118 0.00762598,-0.00259449 0.011063,-0.00472835 0.00324803,-0.00198819 0.00626378,-0.00432677 0.00899606,-0.00699606 0.000944882,-0.000850394 0.00174016,-0.00188189 0.00229528,-0.0030315 0.000555118,-0.00120866 0.000854331,-0.00250787 0.000854331,-0.00381102 -3.14961e-005,-0.00164173 -0.000448819,-0.00317323 -0.00122835,-0.00452756 8.66142e-005,7.87402e-005 0.000169291,0.00015748 0.000255906,0.000244094 0.00173228,0.00173228 0.00266929,0.0039685 0.0027126,0.00645669 0,0.00129921 -0.000295276,0.00260236 -0.000854331,0.00381102 -0.000555118,0.00114961 -0.00134646,0.0021811 -0.00229528,0.0030315l0 0zm-0.00420472 -0.0662402c0.00149606,0.00174016 0.00284646,0.0036063 0.00405118,0.00559055 0.00229921,0.00387402 0.00405512,0.00802362 0.0051811,0.0123819 0.00118898,0.00446063 0.00177165,0.00904724 0.00177165,0.0136654l0 9.44882e-005c-4.33071e-005,0.00174803 -0.000484252,0.00344882 -0.00141339,0.00493701 -0.000870079,0.00138976 -0.00204331,0.00255118 -0.00349606,0.00336614 -0.00146063,0.000795276 -0.00304331,0.00122441 -0.0047126,0.00122441l-0.0547795 0c0.000484252,0.00214961 0.0011811,0.00424409 0.00214173,0.00624016 0.000637795,0.00132283 0.00137008,0.00258268 0.0022126,0.00376772 -0.0016063,-0.00177165 -0.00290945,-0.00377559 -0.00395669,-0.00594094 -0.00096063,-0.00199606 -0.00165748,-0.00409055 -0.00214173,-0.00624016l0.0547835 0c0.00166929,0 0.00325197,-0.000425197 0.0047126,-0.00122441 0.00145276,-0.000814961 0.00262205,-0.00197244 0.00349606,-0.0033622 0.000929134,-0.00148819 0.00136614,-0.00319291 0.00141339,-0.00493701l0 -9.84252e-005c0,-0.00461811 -0.000582677,-0.00920079 -0.00177165,-0.0136654 -0.00112992,-0.00435433 -0.00288189,-0.00850394 -0.00518504,-0.012378 -0.000716535,-0.00118504 -0.00148031,-0.00232283 -0.00230709,-0.00342126zm-0.0160906 0.010626c-0.00172441,-0.00187402 -0.00375591,-0.00334646 -0.0060748,-0.00445276 -0.00286614,-0.00135827 -0.00600394,-0.00187402 -0.00912992,-0.0018937 -0.00291732,1.9685e-005 -0.0057126,0.000551181 -0.00838189,0.00177165 -0.00262598,0.00117717 -0.00490945,0.00285433 -0.00687402,0.00495669 -0.00212992,0.00226772 -0.00376772,0.00488189 -0.00501575,0.00772441 -0.000496063,0.00114173 -0.000913386,0.00230709 -0.00126772,0.00349606l-0.00229921 0c0.000429134,-0.00194094 0.00102756,-0.00384252 0.00182677,-0.00566535 0.00124409,-0.00284646 0.00288189,-0.00545669 0.00501181,-0.00772835 0.0019685,-0.00209843 0.00424803,-0.00377953 0.00687402,-0.00495669 0.00266929,-0.00121654 0.0054685,-0.00174803 0.00838189,-0.00177165 0.00312992,2.3622e-005 0.00626772,0.00053937 0.00912992,0.00190157 0.00257087,0.00121654 0.0047874,0.00289764 0.00662598,0.00507087 0.000417323,0.000503937 0.000814961,0.00101575 0.00118898,0.00154724l3.93701e-006 0zm0.0537559 0.0580866l0 0.025185c-3.93701e-005,0.00265748 -0.000944882,0.00512598 -0.00279921,0.00704331 -0.0018622,0.00198031 -0.00432677,0.0029252 -0.00701969,0.00300787l-0.000114173 0 -0.00011811 0c-0.00268504,-8.26772e-005 -0.00514173,-0.00101969 -0.00703543,-0.00294094 -0.000614173,-0.000606299 -0.00112598,-0.00126772 -0.00154331,-0.00197638 0.00186614,0.00179134 0.00424409,0.00266535 0.00683858,0.00274409l0.000114173 3.93701e-006 0.00011811 -3.93701e-006c0.00269291,-7.87402e-005 0.00515748,-0.00102362 0.00701969,-0.00300394 0.00185433,-0.00191732 0.00275984,-0.00438583 0.00279921,-0.00704724l0 -0.0251811c0.00195669,0.00183465 0.0041063,0.00346457 0.00638976,0.00489764 0.00294882,0.00188976 0.00619685,0.00328346 0.00955906,0.00430315 0.00375984,0.00109843 0.00765748,0.00156299 0.0115472,0.00159449 0.00442126,0 0.00873622,-0.000704724 0.0129213,-0.00207087 0.0042126,-0.00134646 0.00816142,-0.00337402 0.0117598,-0.00596457 0.00372047,-0.0026811 0.00692126,-0.00595276 0.0096063,-0.00965354 0.00288583,-0.00394094 0.00499606,-0.00833071 0.00648819,-0.0129882 0.00164961,-0.00512992 0.00233071,-0.0105315 0.00235433,-0.0159094l0 -0.000334646c-2.3622e-005,-0.00541339 -0.000700787,-0.0108465 -0.00238583,-0.0159921 -0.00148819,-0.00461811 -0.00361417,-0.00901969 -0.00648819,-0.0129488l-0.000307087 -0.000409449c0.000708661,0.000830709 0.0013937,0.00169291 0.00204724,0.00257874 0.00287402,0.00393307 0.005,0.00833071 0.00648819,0.0129488 0.00168504,0.00514567 0.0023622,0.0105827 0.00238583,0.0159921l0 0.000334646c-2.3622e-005,0.00538189 -0.000704724,0.0107795 -0.00235433,0.0159134 -0.00148819,0.00465748 -0.00359843,0.00904331 -0.00648819,0.0129843 -0.0026811,0.00370472 -0.00588189,0.00697244 -0.00960236,0.00965354 -0.00360236,0.00259449 -0.00754724,0.00461811 -0.0117638,0.0059685 -0.00418504,0.00136614 -0.0085,0.00206693 -0.0129173,0.00206693 -0.0038937,-2.3622e-005 -0.0077874,-0.000496063 -0.0115512,-0.00159055 -0.00335827,-0.00101969 -0.00661024,-0.00241732 -0.00955906,-0.00430315 -0.00228346,-0.00143701 -0.00442913,-0.00306299 -0.00638976,-0.00490157l0 0zm-0.00315354 -0.0788976l0.000212598 0.000204724c0.00118504,0.00118898 0.00199606,0.00256693 0.00246457,0.00408661l-7.87402e-005 6.69291e-005c-0.000401575,0.000374016 -0.000795276,0.000751969 -0.00118504,0.00113386l0 -0.000338583 -3.93701e-006 -5.51181e-005c-5.51181e-005,-0.00185827 -0.000507874,-0.00357874 -0.00140945,-0.00509843l0 0zm0.0463976 0.0230079c-0.000153543,-0.000169291 -0.000307087,-0.000338583 -0.000464567,-0.000503937 -0.00228346,-0.00235039 -0.00491339,-0.00420866 -0.00791339,-0.00549213 -0.00305512,-0.00127953 -0.00625197,-0.00191339 -0.00954724,-0.00191339 -0.00330709,2.3622e-005 -0.0065,0.000685039 -0.00954724,0.00198819 -0.00312205,0.00133071 -0.00586614,0.00324409 -0.00826772,0.00562598 -0.00251969,0.00251969 -0.00440945,0.00548031 -0.00579528,0.00874409 -0.00150787,0.00361811 -0.00215748,0.0074252 -0.0021811,0.0113228l0 0.000295276c2.3622e-005,0.00396063 0.000665354,0.00783858 0.0021811,0.0114921 0.00084252,0.00199606 0.00186614,0.00387402 0.00311024,0.0056063 -0.00205906,-0.00229528 -0.00364567,-0.00491339 -0.00485433,-0.00777559 -0.00151575,-0.00365748 -0.00215748,-0.00753543 -0.0021811,-0.0114921l0 -0.000295276c2.3622e-005,-0.0038937 0.000673228,-0.00770866 0.0021811,-0.0113228 0.00138976,-0.00326378 0.00327559,-0.00622441 0.00579921,-0.00874409 0.00240157,-0.00238583 0.00514173,-0.00429921 0.00826378,-0.00562598 0.00304724,-0.00130709 0.00624016,-0.0019685 0.00955118,-0.00199213 0.00329528,0 0.00648819,0.000637795 0.00954331,0.00191732 0.003,0.00128346 0.00563386,0.0031378 0.00791339,0.00548819 0.00080315,0.00084252 0.00153937,0.00173622 0.00220866,0.00267323l0 3.93701e-006zm0.076311 0.0668425c-0.00641339,-5.51181e-005 -0.0126614,-0.00117717 -0.0185591,-0.00370472 -0.00555118,-0.00238976 -0.0105079,-0.00574016 -0.0147165,-0.0100591 -0.00137008,-0.00140157 -0.0026378,-0.00287795 -0.00380315,-0.0044252 0.00065748,0.000771654 0.00134252,0.00152362 0.00206299,0.00225197 0.00420472,0.00432677 0.00916535,0.00767323 0.0147126,0.010063 0.00589764,0.00252756 0.0121457,0.00364961 0.0185591,0.00370472 0.00648425,-5.90551e-005 0.012811,-0.00120079 0.0187283,-0.00375984 0.00562205,-0.00241339 0.0106102,-0.0057874 0.014874,-0.0101693 0.0042126,-0.00429921 0.00748425,-0.00929134 0.00980709,-0.0148504 0.00235433,-0.00574409 0.00349606,-0.0117717 0.00352362,-0.0179685l0 -0.000330709c-2.75591e-005,-0.00617717 -0.00115748,-0.0122008 -0.00349213,-0.0179055 -0.0015315,-0.00369685 -0.00348425,-0.0071378 -0.00585827,-0.0102874 0.00317323,0.00372047 0.00570866,0.0078937 0.00759843,0.0124567 0.00233858,0.00570866 0.0034685,0.0117323 0.00349606,0.0179055l0 0.000334646c-2.75591e-005,0.00619291 -0.00116929,0.0122244 -0.00352756,0.0179646 -0.00232283,0.00556299 -0.00559055,0.0105512 -0.00980315,0.0148504 -0.00426772,0.00438583 -0.00925197,0.00775984 -0.014874,0.0101732 -0.0059252,0.00255512 -0.012248,0.00370079 -0.0187283,0.00375591l0 0zm0.0193622 -0.0662047c-0.00015748,-0.000177165 -0.000318898,-0.000354331 -0.000476378,-0.000523622 -0.00239764,-0.00255906 -0.00518504,-0.00455906 -0.00840551,-0.00598425 -0.00332283,-0.00149606 -0.00683858,-0.00217717 -0.0104528,-0.00220079 -0.00367717,2.3622e-005 -0.00723622,0.000669291 -0.0105906,0.00216535 -0.00312598,0.00142913 -0.00587795,0.00338189 -0.00819291,0.00594488 -0.00235433,0.00259449 -0.00414567,0.00556693 -0.00537795,0.00887008 -0.00133071,0.00348819 -0.00191732,0.00714961 -0.00194094,0.0108622l0 0.000295276c2.3622e-005,0.00377953 0.000645669,0.00747244 0.0020315,0.0110039 0.000866142,0.00220866 0.00197244,0.00427953 0.00334252,0.00618504 -0.00220472,-0.0024685 -0.00387795,-0.00527559 -0.00508268,-0.00835827 -0.00138583,-0.0035315 -0.00201181,-0.00722047 -0.00203543,-0.011l0 -0.000295276c2.3622e-005,-0.00371654 0.000610236,-0.00737402 0.00194488,-0.0108661 0.00122835,-0.00329921 0.00301969,-0.00627559 0.00537795,-0.00886614 0.00231102,-0.00256693 0.00506299,-0.00451969 0.00818898,-0.00594882 0.00335827,-0.00149606 0.00691339,-0.0021378 0.0105906,-0.00216142 0.00361417,2.3622e-005 0.00713386,0.000700787 0.0104528,0.00220079 0.00322047,0.00142126 0.00600787,0.00342126 0.00840551,0.00598031 0.000799213,0.000854331 0.00153937,0.00175591 0.00222047,0.00269685zm0.049248 0.0421535l0.000137795 0.000137795c0.00218504,0.0021811 0.00318504,0.00495669 0.00325984,0.00801181l0 9.44882e-005 0 0.00322835c-3.54331e-005,0.002 -0.0005,0.00395276 -0.0014685,0.00572835 -0.000968504,0.00173622 -0.00235827,0.00314567 -0.00406299,0.00415748 -0.00175197,0.00104331 -0.00372835,0.00154724 -0.00575984,0.00158268l-7.08661e-005 3.93701e-006 -7.08661e-005 -3.93701e-006c-0.00205512,-3.54331e-005 -0.00405118,-0.000523622 -0.00583465,-0.00156299 -0.00162992,-0.000944882 -0.00296063,-0.00224016 -0.00394882,-0.00383465 0.00065748,0.000637795 0.00139764,0.00119685 0.00220866,0.00166535 0.00178346,0.00103543 0.00377953,0.00152362 0.00583465,0.00155906l7.08661e-005 3.93701e-006 6.69291e-005 -3.93701e-006c0.0020315,-3.54331e-005 0.00400787,-0.000535433 0.00576378,-0.00157874 0.00170472,-0.00101575 0.00309449,-0.0024252 0.00406299,-0.00416142 0.000968504,-0.00177165 0.00142913,-0.00372441 0.0014685,-0.00572835l0 -0.00322441 0 -9.84252e-005c-5.11811e-005,-0.00216535 -0.000574803,-0.00419685 -0.00165354,-0.00597244l-3.93701e-006 -3.93701e-006zm0.12915 0.02c-0.000614173,-0.000606299 -0.00112598,-0.00127165 -0.00154331,-0.00197638 0.00186614,0.0017874 0.00424409,0.00266535 0.00683858,0.00274409l0.00011811 3.93701e-006 0.00011811 -3.93701e-006c0.00267717,-8.26772e-005 0.00505512,-0.00105118 0.00691732,-0.00295669 0.00188976,-0.00188976 0.0028189,-0.00435039 0.0028937,-0.00701969l3.93701e-006 -5.90551e-005 0 -0.0454528c-2.3622e-005,-0.00664961 -0.00114567,-0.0133268 -0.00411024,-0.0193189 -0.000838583,-0.00170079 -0.00180315,-0.00329921 -0.00288583,-0.00478346 0.0018189,0.00206693 0.0033622,0.00438976 0.00462992,0.00695669 0.00296457,0.00599213 0.00408268,0.0126693 0.00411024,0.019315l0 0.0454528 -3.93701e-006 5.90551e-005c-7.87402e-005,0.00267323 -0.00100787,0.00512992 -0.00289764,0.00702362 -0.0018622,0.00190157 -0.00423622,0.00287402 -0.00691339,0.00295669l-0.00011811 3.93701e-006 -0.000122047 -3.93701e-006c-0.00268504,-7.87402e-005 -0.00514173,-0.00101969 -0.00703543,-0.00294094l0 0zm-0.0081811 -0.0660748c-0.000783465,-0.000807087 -0.00167717,-0.00152362 -0.00268898,-0.00214567 -0.0028622,-0.00171654 -0.00613386,-0.0023189 -0.00943307,-0.0023189 -0.00248819,0 -0.00492913,0.00042126 -0.00724409,0.00139764 -0.00223228,0.000909449 -0.00416535,0.00225197 -0.00582283,0.004 -0.00181496,0.00190551 -0.00312598,0.00418898 -0.00403543,0.00664961 -0.00111024,0.00300787 -0.00150787,0.00626772 -0.00152756,0.00944488l0 0.041937c-4.33071e-005,0.00270079 -0.00100394,0.00519291 -0.00291732,0.00711024 -0.0019252,0.00192126 -0.00435827,0.00285827 -0.00706299,0.00294094l-0.000122047 0 -0.000114173 0c-0.00267717,-8.26772e-005 -0.00504724,-0.00104331 -0.00690945,-0.00294882 -0.000590551,-0.000594488 -0.00109055,-0.00124409 -0.00149606,-0.00193307 0.00182283,0.00174409 0.00409843,0.00262598 0.00666142,0.00270866l0.00011811 3.93701e-006 0.00011811 -3.93701e-006c0.00270866,-8.26772e-005 0.0051378,-0.00101969 0.00706693,-0.00294094 0.00191339,-0.00191732 0.00287402,-0.00440945 0.00291339,-0.00711024l0 -0.041937c2.3622e-005,-0.00317717 0.00042126,-0.00643701 0.0015315,-0.00944488 0.000905512,-0.00246063 0.00221654,-0.00474409 0.0040315,-0.00664961 0.00166142,-0.00174409 0.00359055,-0.00309055 0.00582283,-0.004 0.0023189,-0.000976378 0.00475591,-0.00139764 0.00724409,-0.00139764 0.00330315,0 0.0065748,0.000606299 0.00943701,0.00232283 0.00183465,0.00112205 0.0032874,0.00257874 0.00442913,0.00431496zm-0.0560276 5.51181e-005c-0.00080315,-0.000826772 -0.00170866,-0.00155906 -0.00273622,-0.00218898 -0.00279134,-0.0017126 -0.00598031,-0.00233465 -0.00920866,-0.00233465 -0.00348819,2.3622e-005 -0.00668898,0.000870079 -0.00962598,0.00274409 -0.00294094,0.00188976 -0.00513386,0.00448425 -0.00672835,0.00759449 -0.00185827,0.00361417 -0.00257087,0.00762205 -0.00261024,0.0116378l0 0.0414567c-3.93701e-005,0.00265748 -0.000948819,0.00512598 -0.00279921,0.00704331 -0.0018622,0.00198031 -0.00433071,0.00292913 -0.00702362,0.00300787l-0.000114173 3.93701e-006 -0.00011811 -3.93701e-006c-0.00268504,-7.87402e-005 -0.00514173,-0.00101969 -0.00703543,-0.00294094 -0.000614173,-0.000606299 -0.00112598,-0.00126772 -0.00154331,-0.00197638 0.00186614,0.0017874 0.00424409,0.00266535 0.00683858,0.00274409l0.000114173 3.93701e-006 0.00011811 -3.93701e-006c0.00269291,-7.87402e-005 0.00516142,-0.00102362 0.00701969,-0.00300394 0.00185433,-0.00191732 0.00275984,-0.00438583 0.00279921,-0.00704724l0 -0.0414528c4.33071e-005,-0.00401575 0.000751969,-0.00802362 0.00261024,-0.0116378 0.00159843,-0.00311024 0.0037874,-0.00570472 0.00673228,-0.00759843 0.00293307,-0.00187402 0.0061378,-0.00272047 0.00962598,-0.00274016 0.00322835,0 0.00641732,0.000622047 0.00920866,0.00233071 0.00185433,0.00114173 0.00331496,0.00261417 0.00447638,0.0043622l0 0zm-0.034063 -0.0197795l0.000212598 0.000204724c0.00065748,0.000661417 0.00120079,0.00138189 0.00163386,0.00214961 -0.000228346,0.000212598 -0.00046063,0.00042126 -0.000685039,0.000641732 -0.000228346,-0.00106693 -0.000614173,-0.00207087 -0.00116142,-0.00299606l0 0zm0.0505039 0.00709449l0.000220472 0.000259843 -1.5748e-005 1.9685e-005 -0.000204724 -0.000279528zm0.149791 0.0693307c-0.00272835,0.00266535 -0.00574409,0.00500394 -0.00899213,0.00699606 -0.00344094,0.00212992 -0.00717717,0.00367323 -0.011063,0.00472835 -0.00438583,0.00122047 -0.009,0.00167717 -0.013563,0.00170079 -0.00597638,-2.75591e-005 -0.0118504,-0.00110236 -0.017378,-0.00338976 -0.00540551,-0.00222441 -0.0101969,-0.00543307 -0.0142992,-0.00959055 -0.00140157,-0.00140945 -0.00268898,-0.00290551 -0.00386614,-0.00447244 0.000677165,0.000787402 0.00138583,0.00155512 0.00212598,0.00230315 0.00409843,0.00415748 0.00888976,0.0073622 0.0142992,0.00958661 0.00552756,0.00229134 0.0113976,0.00336614 0.017378,0.0033937 0.00455906,-2.75591e-005 0.00917717,-0.000480315 0.0135591,-0.00170472 0.00388583,-0.00105118 0.00762598,-0.00259449 0.011063,-0.00472835 0.00324803,-0.00198819 0.00626378,-0.00432677 0.00899606,-0.00699606 0.000948819,-0.000850394 0.00174016,-0.00188189 0.00229528,-0.0030315 0.000555118,-0.00120866 0.000854331,-0.00250787 0.000854331,-0.00381102 -2.75591e-005,-0.00164173 -0.000448819,-0.00317323 -0.00122835,-0.00452756 8.66142e-005,7.87402e-005 0.000169291,0.00015748 0.000255906,0.000244094 0.00173228,0.00173228 0.00266929,0.0039685 0.0027126,0.00645669 0,0.00129921 -0.000295276,0.00260236 -0.000854331,0.00381102 -0.000551181,0.00114961 -0.00134252,0.0021811 -0.00229528,0.0030315l0 0zm-0.00420079 -0.0662402c0.00149213,0.00174016 0.00284646,0.0036063 0.00404724,0.00559055 0.00230315,0.00387402 0.00405512,0.00802362 0.0051811,0.0123819 0.00119291,0.00446063 0.00177165,0.00904724 0.00177165,0.0136654l0 9.44882e-005c-4.33071e-005,0.00174803 -0.000480315,0.00344882 -0.00141339,0.00493701 -0.000866142,0.00138976 -0.00204331,0.00255118 -0.00349606,0.00336614 -0.00146063,0.000795276 -0.00303937,0.00122441 -0.00470866,0.00122441l-0.0547835 0c0.000484252,0.00214961 0.0011811,0.00424409 0.00214173,0.00624016 0.000637795,0.00132283 0.00137402,0.00258268 0.00221654,0.00376772 -0.00161024,-0.00177165 -0.00290945,-0.00377559 -0.00396063,-0.00594094 -0.000956693,-0.00199606 -0.00165748,-0.00409055 -0.0021378,-0.00624016l0.0547835 0c0.00166535,0 0.00324803,-0.000425197 0.00470866,-0.00122441 0.00145276,-0.000814961 0.00262598,-0.00197244 0.00349606,-0.0033622 0.000929134,-0.00148819 0.00137008,-0.00319291 0.00141339,-0.00493701l0 -9.84252e-005c0,-0.00461811 -0.000582677,-0.00920079 -0.00177165,-0.0136654 -0.00112992,-0.00435433 -0.00288189,-0.00850394 -0.0051811,-0.012378 -0.000720472,-0.00118504 -0.00148425,-0.00232283 -0.00230709,-0.00342126zm-0.0160945 0.010626c-0.00172441,-0.00187402 -0.00375591,-0.00334646 -0.0060748,-0.00445276 -0.0028622,-0.00135827 -0.006,-0.00187402 -0.00912992,-0.0018937 -0.00291339,1.9685e-005 -0.00570866,0.000551181 -0.00838189,0.00177165 -0.00262598,0.00117717 -0.00490945,0.00285433 -0.00687402,0.00495669 -0.00212992,0.00226772 -0.00376378,0.00488189 -0.00501575,0.00772441 -0.000496063,0.00114173 -0.000913386,0.00230709 -0.00126378,0.00349606l-0.00230315 0c0.000429134,-0.00194094 0.00102756,-0.00384252 0.00182677,-0.00566535 0.00124803,-0.00284646 0.00288189,-0.00545669 0.00501181,-0.00772835 0.0019685,-0.00209843 0.00424803,-0.00377953 0.00687402,-0.00495669 0.00267323,-0.00121654 0.0054685,-0.00174803 0.00838583,-0.00177165 0.00312598,2.3622e-005 0.00626378,0.00053937 0.00912598,0.00190157 0.00257087,0.00121654 0.00479134,0.00289764 0.00662598,0.00507087 0.000417323,0.000503937 0.000814961,0.00101575 0.00118898,0.00154724l3.93701e-006 0z"/>
   <path id="_276380896" class="fil1" d="M0.204484 0.137783c2.3622e-005,0.00116535 0.000314961,0.00224803 0.000870079,0.00320079 0.000555118,0.000952756 0.00129528,0.00172047 0.00222047,0.00227165 0.000952756,0.000559055 0.00196063,0.000846457 0.00309449,0.000874016 0.00119291,-2.75591e-005 0.00225197,-0.000314961 0.00320472,-0.000874016 0.000948819,-0.000551181 0.00171654,-0.0013189 0.00227165,-0.00227165 0.000555118,-0.000952756 0.000846457,-0.00203937 0.000874016,-0.00320079l0 -0.024122 0.0239646 -0.0239646 0.0414213 0.0515787c0.000559055,0.000818898 0.00124409,0.00148031 0.00206299,0.00200787 0.000822835,0.000555118 0.00182677,0.000818898 0.00301575,0.000846457 0.00116535,-2.75591e-005 0.00224803,-0.000314961 0.00320079,-0.000897638 0.000952756,-0.000582677 0.00172047,-0.00137795 0.00227559,-0.00233071 0.000555118,-0.000948819 0.000846457,-0.00198031 0.000874016,-0.00311811 0,-0.000925197 -0.000161417,-0.00177559 -0.000452756,-0.00248819 -0.000318898,-0.000712598 -0.000740157,-0.00142913 -0.00129528,-0.00211417l-0.0422165 -0.0520591 0.0393583 -0.0390394c0.000637795,-0.000637795 0.0011378,-0.00132283 0.00150787,-0.00203937 0.000370079,-0.000740157 0.000555118,-0.00153543 0.000555118,-0.00240551 -2.3622e-005,-0.00108661 -0.000291339,-0.00209055 -0.000818898,-0.00301575 -0.000527559,-0.000925197 -0.00126772,-0.00169291 -0.00216929,-0.00227559 -0.000897638,-0.000582677 -0.00193307,-0.000870079 -0.00304331,-0.000897638 -0.0010315,0 -0.00192913,0.000208661 -0.00269685,0.000633858 -0.000791339,0.000397638 -0.0015315,0.000925197 -0.00222047,0.00158661l-0.0633268 0.0649094 0 -0.0607795c-2.3622e-005,-0.00119291 -0.000314961,-0.00225197 -0.000874016,-0.00320472 -0.000551181,-0.000952756 -0.00132283,-0.00171654 -0.00227165,-0.00227165 -0.000952756,-0.000582677 -0.00201181,-0.000874016 -0.00320079,-0.000874016 -0.0011378,0 -0.00214173,0.000291339 -0.00309449,0.000874016 -0.000929134,0.000555118 -0.00166929,0.0013189 -0.00222441,0.00227165 -0.000555118,0.000952756 -0.000846457,0.00201181 -0.000870079,0.00320472l0 0.0999843 3.93701e-006 0zm0.10665 -0.0399961c0.000425197,-0.00401969 0.00135039,-0.00774803 0.00283071,-0.0111339 0.00148031,-0.00338583 0.00338583,-0.00632283 0.00574016,-0.00883465 0.00235433,-0.00251181 0.00505118,-0.0044685 0.00812205,-0.00584646 0.00306693,-0.00140157 0.00637402,-0.00209055 0.00997244,-0.00211417 0.00409843,2.3622e-005 0.00769685,0.000791339 0.0108189,0.00227165 0.00311811,0.00148425 0.00576378,0.00351969 0.00793701,0.00608661 0.00216535,0.00259055 0.00385827,0.00555512 0.00510236,0.00891339 0.00124409,0.00335827 0.00201181,0.00690157 0.00232677,0.0106575l-0.0528465 0 -3.93701e-006 0zm0.0595157 0.0350748c0.000633858,-0.000551181 0.00111024,-0.00118898 0.00142913,-0.00185039 0.000314961,-0.000688976 0.000476378,-0.00140157 0.000476378,-0.00211417 -2.75591e-005,-0.00145669 -0.000555118,-0.00270079 -0.00156299,-0.00370472 -0.00100394,-0.000980315 -0.00229921,-0.00150787 -0.00383465,-0.00153543 -0.000712598,0 -0.00135039,0.00015748 -0.00192913,0.00042126 -0.000559055,0.00026378 -0.00108661,0.000610236 -0.00156299,0.00100787 -0.00201181,0.00187795 -0.00417717,0.00351575 -0.00655906,0.00494488 -0.00235433,0.00142913 -0.00494488,0.00253937 -0.00777953,0.00333465 -0.00283071,0.000818898 -0.00592126,0.00121654 -0.00930709,0.00124409 -0.00367717,0 -0.00714173,-0.000610236 -0.0104213,-0.00185433 -0.00327953,-0.00121654 -0.00624409,-0.00301181 -0.00883858,-0.00537008 -0.00261811,-0.00235433 -0.00475984,-0.00526378 -0.0064252,-0.00870079 -0.00166535,-0.00346457 -0.00275197,-0.00740551 -0.00320079,-0.0118504l0.0593583 0c0.0010315,0 0.00195669,-0.00026378 0.00283071,-0.000740157 0.000846457,-0.000476378 0.00153543,-0.00116535 0.00206299,-0.00201181 0.000527559,-0.00084252 0.000791339,-0.00185039 0.000818898,-0.00296063 0,-0.00436614 -0.000555118,-0.00859843 -0.00164173,-0.0126732 -0.00105906,-0.00407087 -0.00266929,-0.00785433 -0.00475984,-0.011374 -0.00211811,-0.00348819 -0.00470866,-0.0065315 -0.00777953,-0.00914961 -0.00309449,-0.00264567 -0.0066378,-0.0046811 -0.0106299,-0.0061378 -0.00399213,-0.00148031 -0.00841339,-0.00222047 -0.0132795,-0.00224803 -0.0057126,2.75591e-005 -0.0109488,0.00116535 -0.0157126,0.00333465 -0.0047874,0.00219291 -0.00893701,0.00523622 -0.0124843,0.00914961 -0.00351575,0.00388976 -0.00626772,0.00841339 -0.00820079,0.0135709 -0.00195669,0.00512992 -0.00293701,0.010685 -0.00296063,0.0166378l0 0.000318898c2.3622e-005,0.00637402 0.00111024,0.0121693 0.00322835,0.017378 0.00211417,0.00520866 0.00505118,0.00970472 0.00880709,0.0134882 0.00372835,0.00378346 0.00806693,0.00669291 0.0130118,0.00872835 0.00492126,0.00203937 0.0102362,0.00306693 0.0159016,0.00309843 0.00462598,-2.75591e-005 0.00880709,-0.000531496 0.0125079,-0.00156299 0.00370472,-0.00100394 0.00706299,-0.00243307 0.0100512,-0.00428346 0.00301575,-0.00185433 0.00582283,-0.00402362 0.00838583,-0.00653543l0 0zm0.0273031 -0.0350748c0.00042126,-0.00401969 0.00134646,-0.00774803 0.00282677,-0.0111339 0.00148031,-0.00338583 0.00338583,-0.00632283 0.00574016,-0.00883465 0.00235433,-0.00251181 0.00505118,-0.0044685 0.00812205,-0.00584646 0.00306693,-0.00140157 0.00637402,-0.00209055 0.00997244,-0.00211417 0.00410236,2.3622e-005 0.00769685,0.000791339 0.0108189,0.00227165 0.00311811,0.00148425 0.00576378,0.00351969 0.00793701,0.00608661 0.00216535,0.00259055 0.00385827,0.00555512 0.00510236,0.00891339 0.00124409,0.00335827 0.00201181,0.00690157 0.00232677,0.0106575l-0.0528465 0 0 0zm0.0595118 0.0350748c0.000633858,-0.000551181 0.00111024,-0.00118898 0.00142913,-0.00185039 0.000318898,-0.000688976 0.000476378,-0.00140157 0.000476378,-0.00211417 -2.75591e-005,-0.00145669 -0.000555118,-0.00270079 -0.00155906,-0.00370472 -0.00100787,-0.000980315 -0.00230315,-0.00150787 -0.00383858,-0.00153543 -0.000712598,0 -0.00135039,0.00015748 -0.00192913,0.00042126 -0.000555118,0.00026378 -0.00108268,0.000610236 -0.00156299,0.00100787 -0.00200787,0.00187795 -0.00417717,0.00351575 -0.00655906,0.00494488 -0.00235433,0.00142913 -0.00494488,0.00253937 -0.00777559,0.00333465 -0.00283071,0.000818898 -0.0059252,0.00121654 -0.00931102,0.00124409 -0.00367717,0 -0.00714173,-0.000610236 -0.0104213,-0.00185433 -0.00327953,-0.00121654 -0.00624016,-0.00301181 -0.00883465,-0.00537008 -0.00261811,-0.00235433 -0.00476378,-0.00526378 -0.00642913,-0.00870079 -0.00166535,-0.00346457 -0.00274803,-0.00740551 -0.00319685,-0.0118504l0.0593543 0c0.0010315,0 0.00195669,-0.00026378 0.00283071,-0.000740157 0.000846457,-0.000476378 0.00153543,-0.00116535 0.00206299,-0.00201181 0.000527559,-0.00084252 0.000791339,-0.00185039 0.000818898,-0.00296063 0,-0.00436614 -0.000555118,-0.00859843 -0.00164173,-0.0126732 -0.00105906,-0.00407087 -0.00266929,-0.00785433 -0.00475984,-0.011374 -0.00211417,-0.00348819 -0.00470472,-0.0065315 -0.00777559,-0.00914961 -0.00309449,-0.00264567 -0.0066378,-0.0046811 -0.0106339,-0.0061378 -0.00399213,-0.00148031 -0.00841339,-0.00222047 -0.0132756,-0.00224803 -0.00571654,2.75591e-005 -0.0109528,0.00116535 -0.0157126,0.00333465 -0.0047874,0.00219291 -0.00894094,0.00523622 -0.0124843,0.00914961 -0.00351969,0.00388976 -0.00627165,0.00841339 -0.00820472,0.0135709 -0.00195669,0.00512992 -0.00293307,0.010685 -0.00296063,0.0166378l0 0.000318898c2.3622e-005,0.00637402 0.00111024,0.0121693 0.00322835,0.017378 0.00211417,0.00520866 0.00505118,0.00970472 0.00880709,0.0134882 0.00372835,0.00378346 0.00807087,0.00669291 0.0130118,0.00872835 0.00492126,0.00203937 0.0102402,0.00306693 0.0159016,0.00309843 0.00462992,-2.75591e-005 0.00880709,-0.000531496 0.0125118,-0.00156299 0.00370079,-0.00100394 0.00706299,-0.00243307 0.0100472,-0.00428346 0.00301575,-0.00185433 0.00582283,-0.00402362 0.00838583,-0.00653543l0 0zm0.02 0.0304724c5.11811e-005,0.00177165 0.000633858,0.00325197 0.00179921,0.00438976 0.0011378,0.00116535 0.00261811,0.00174803 0.00438976,0.00179921 0.00177165,-5.11811e-005 0.00322835,-0.000633858 0.00431102,-0.00179921 0.00111024,-0.0011378 0.00169685,-0.00261811 0.00172047,-0.00438976l0 -0.0357087c0.00158661,0.00232677 0.00338583,0.00451969 0.00544882,0.00661024 0.00203543,0.00209055 0.0043622,0.00394488 0.00693307,0.00555512 0.00256693,0.00164173 0.00544882,0.00291339 0.00859843,0.00386614 0.00317323,0.00092126 0.0066378,0.00139764 0.0104449,0.0014252 0.00399606,0 0.00788583,-0.000633858 0.0116929,-0.00187795 0.00380709,-0.00121654 0.00738189,-0.00303937 0.010689,-0.00542126 0.00330315,-0.00238189 0.00621654,-0.00531496 0.00872835,-0.00877953 0.00253937,-0.0034685 0.00449606,-0.00740945 0.0059252,-0.011878 0.0014252,-0.00444488 0.00214173,-0.0093622 0.00216535,-0.0147323l0 -0.000318898c-2.3622e-005,-0.0053937 -0.000740157,-0.0103425 -0.00219291,-0.0147874 -0.00142913,-0.00444488 -0.00341339,-0.00840945 -0.0059252,-0.0118504 -0.00253937,-0.00343701 -0.00544882,-0.00634646 -0.00877953,-0.00870079 -0.00330709,-0.00235433 -0.00687795,-0.00415354 -0.0106614,-0.00537008 -0.00381102,-0.00121654 -0.00766929,-0.00182677 -0.0116417,-0.00182677 -0.00499606,5.51181e-005 -0.0094685,0.000901575 -0.0133543,0.00253937 -0.00391732,0.00166535 -0.00735433,0.0038622 -0.0103228,0.00661417 -0.00296063,0.00275197 -0.00555118,0.00576772 -0.00774803,0.00909843l0 -0.0111102c-5.51181e-005,-0.00179921 -0.000633858,-0.00325591 -0.00179921,-0.00441732 -0.0011378,-0.0011378 -0.00259055,-0.00174409 -0.00438976,-0.00177165 -0.00172047,2.75591e-005 -0.00312205,0.000633858 -0.00425984,0.00177165 -0.0011378,0.00116142 -0.00172047,0.00261811 -0.00177165,0.00441732l0 0.0966535zm0.0414252 -0.0292008c-0.00383465,-2.75591e-005 -0.00753937,-0.000767717 -0.0110551,-0.00227559 -0.00354724,-0.00150787 -0.00669291,-0.00364961 -0.0095,-0.00645276 -0.00280315,-0.00280315 -0.005,-0.0061378 -0.00664173,-0.0100276 -0.00161024,-0.00388583 -0.00245669,-0.00819685 -0.00248425,-0.0129843l0 -0.000318898c2.75591e-005,-0.00470866 0.000874016,-0.00896457 0.00248425,-0.0128307 0.00164173,-0.0038622 0.00383858,-0.00719291 0.00664173,-0.00999606 0.00280709,-0.00277953 0.00595276,-0.00494882 0.0095,-0.00645669 0.00351575,-0.00150787 0.00722047,-0.00227165 0.0110551,-0.00229921 0.00391339,0 0.00761811,0.000767717 0.0110827,0.00222047 0.00346457,0.00148031 0.0065315,0.00362205 0.00920472,0.00637402 0.00264567,0.00277559 0.00475984,0.00611024 0.00627165,0.0100276 0.0015315,0.00388583 0.00229921,0.00824803 0.00232677,0.0131181l0 0.000318898c-2.75591e-005,0.00497244 -0.000795276,0.00941339 -0.00227559,0.0133031 -0.00150787,0.00388976 -0.00357087,0.00722047 -0.00621654,0.00992126 -0.00264567,0.00272047 -0.0057126,0.00478346 -0.00917717,0.00621654 -0.00349213,0.00142913 -0.00722047,0.00214173 -0.0112165,0.00214173l0 0zm0.0942756 0.0111102c0.00621654,-5.51181e-005 0.0119567,-0.00119291 0.0171654,-0.00344094 0.00523622,-0.00224803 0.00975984,-0.00534252 0.013622,-0.00931102 0.0038622,-0.00394094 0.00685039,-0.00848819 0.00899213,-0.013622 0.00211811,-0.00515748 0.00320079,-0.0106339 0.00322835,-0.0164764l0 -0.000318898c-2.3622e-005,-0.00584646 -0.00111024,-0.0113228 -0.00320079,-0.0164291 -0.00211811,-0.00510236 -0.00507874,-0.00962598 -0.00891339,-0.0135394 -0.00383465,-0.00388976 -0.00833465,-0.00695669 -0.0135157,-0.0091811 -0.00518504,-0.00222047 -0.0108701,-0.00335827 -0.017063,-0.00338583 -0.00621654,5.51181e-005 -0.0119291,0.00118898 -0.0171378,0.00344094 -0.0052126,0.00224803 -0.00973622,0.00534252 -0.0135709,0.00928346 -0.00383465,0.0039685 -0.00682283,0.00851575 -0.00891339,0.0136496 -0.00211811,0.00515748 -0.00320079,0.0106339 -0.00322835,0.0164803l0 0.000314961c2.3622e-005,0.00584646 0.00108268,0.0112953 0.00320079,0.0164291 0.00209055,0.0051063 0.00502756,0.00962598 0.00883465,0.0135157 0.00380709,0.00391339 0.00830709,0.00698425 0.0134646,0.00920472 0.00518504,0.00222047 0.0108465,0.00333071 0.0170354,0.00338583l0 0zm0.000314961 -0.0109528c-0.00433465,-2.3622e-005 -0.00835827,-0.000874016 -0.0120354,-0.00251575 -0.00367717,-0.0016378 -0.00687795,-0.00391339 -0.00960236,-0.00682283 -0.00275197,-0.00290945 -0.00486614,-0.00629528 -0.00637402,-0.0101575 -0.00150787,-0.00383465 -0.00227559,-0.00796063 -0.00229921,-0.0124016l0 -0.000318898c2.3622e-005,-0.00436614 0.000740157,-0.00843701 0.00219291,-0.012248 0.00142913,-0.00383858 0.00349213,-0.00719685 0.0061378,-0.0101024 0.00264567,-0.00293701 0.0058189,-0.0052126 0.0094685,-0.00687795 0.00367717,-0.00164173 0.00772441,-0.00248819 0.0121969,-0.00251575 0.00433465,2.75591e-005 0.00835827,0.000874016 0.0120591,0.00253937 0.00370472,0.00164173 0.00690551,0.00394094 0.00965354,0.00687795 0.00275197,0.00293701 0.00489764,0.00635039 0.00642913,0.0102126 0.00153543,0.00385827 0.00230315,0.00798425 0.00232677,0.0124331l0 0.000314961c-2.3622e-005,0.00436614 -0.000740157,0.00843701 -0.00219291,0.0122205 -0.00148031,0.00381102 -0.00354331,0.00716929 -0.00621654,0.0100512 -0.00267323,0.00290945 -0.00584646,0.00515748 -0.00952362,0.00679921 -0.00367717,0.00164173 -0.00774803,0.00248819 -0.0122205,0.00251181l0 0zm0.0526929 -0.000952756l0 0.00317323c2.75591e-005,0.00142913 0.00034252,0.00272441 0.000980315,0.00388976 0.000661417,0.0011378 0.00155906,0.00203937 0.00270079,0.00270079 0.00113386,0.00065748 0.00245669,0.00100394 0.00393701,0.00102756 0.00142913,-2.3622e-005 0.00272441,-0.000370079 0.00383465,-0.00102756 0.00111024,-0.000661417 0.00201181,-0.00156299 0.00264567,-0.00270079 0.000637795,-0.00116535 0.000952756,-0.00246063 0.000980315,-0.00388976l0 -0.00317323c-5.11811e-005,-0.00219685 -0.000740157,-0.00396457 -0.00211417,-0.00534252 -0.00137795,-0.00137795 -0.00314961,-0.00206299 -0.00534646,-0.00211811 -0.00224803,5.51181e-005 -0.00407087,0.000740157 -0.00547638,0.00211811 -0.00137402,0.00137795 -0.00208661,0.00314567 -0.00214173,0.00534252zm0.0334882 0.00460236c5.11811e-005,0.00177165 0.000633858,0.00325197 0.00179921,0.0043937 0.0011378,0.00116142 0.00261811,0.00174409 0.00438976,0.00179528 0.00177165,-5.11811e-005 0.00322835,-0.000633858 0.00431102,-0.00179528 0.00111417,-0.00114173 0.00169685,-0.00262205 0.00172047,-0.0043937l0 -0.0414213c5.11811e-005,-0.00507874 0.00105906,-0.00955118 0.00304331,-0.0134094 0.00198031,-0.0038622 0.0046811,-0.00690551 0.00809055,-0.00910236 0.00344094,-0.00219291 0.00733071,-0.00333071 0.0117205,-0.00335827 0.00436614,0 0.00812205,0.000980315 0.0112677,0.00290945 0.00314567,0.00192913 0.00555512,0.00470866 0.00727559,0.00835827 0.00169291,0.00362598 0.00253937,0.00801575 0.00256693,0.0131732l0 0.0428504c5.11811e-005,0.00177165 0.000633858,0.00325197 0.00177165,0.0043937 0.0011378,0.00116142 0.00253543,0.00174409 0.00425591,0.00179528 0.00179921,-5.11811e-005 0.00325591,-0.000633858 0.00442126,-0.00179528 0.00113386,-0.00114173 0.00174409,-0.00262205 0.00177165,-0.0043937l0 -0.0418976c2.3622e-005,-0.00404724 0.000606299,-0.00764567 0.00177165,-0.0107953 0.00116535,-0.00314567 0.00280315,-0.00581496 0.00486614,-0.00798425 0.00206299,-0.00217323 0.00444488,-0.00381102 0.00716929,-0.0049252 0.00269685,-0.00113386 0.0056063,-0.00168898 0.00872835,-0.00168898 0.0044685,0 0.00827953,0.000980315 0.0114567,0.00288189 0.00314567,0.00193307 0.00557874,0.00470866 0.00727165,0.00841339 0.00166535,0.00367323 0.00253937,0.00814567 0.00253937,0.0134606l0 0.0425354c5.11811e-005,0.00177165 0.000633858,0.00325197 0.00179921,0.0043937 0.0011378,0.00116142 0.00261811,0.00174409 0.00438976,0.00179528 0.00172047,-5.11811e-005 0.00312205,-0.000633858 0.00425591,-0.00179528 0.00114173,-0.00114173 0.00172441,-0.00262205 0.00177559,-0.0043937l0 -0.0453898c-2.75591e-005,-0.00679921 -0.00126772,-0.0126693 -0.00370472,-0.0175906 -0.00243307,-0.00491732 -0.0059252,-0.00870079 -0.0104724,-0.011374 -0.00455118,-0.00266929 -0.00997244,-0.00401969 -0.0162953,-0.00404724 -0.00473228,2.75591e-005 -0.00891732,0.000767717 -0.0125394,0.00222441 -0.00359843,0.00145276 -0.00674409,0.00340945 -0.00941339,0.00587008 -0.00267323,0.00246063 -0.005,0.0052126 -0.00693307,0.00825591 -0.00148031,-0.00309843 -0.00341339,-0.00587795 -0.00584646,-0.00833465 -0.00240551,-0.00246063 -0.00531496,-0.0043937 -0.00872835,-0.0058189 -0.00341339,-0.00142913 -0.00732677,-0.00216929 -0.0117717,-0.00219685 -0.0045748,5.11811e-005 -0.00851575,0.000795276 -0.0117992,0.00222441 -0.00330315,0.00145276 -0.00613386,0.00335827 -0.00851575,0.00568504 -0.00235433,0.00235433 -0.00441732,0.0048937 -0.00618898,0.00764567l0 -0.00841339c-5.51181e-005,-0.00179921 -0.000633858,-0.00325591 -0.00179921,-0.00441732 -0.0011378,-0.0011378 -0.00259055,-0.00174409 -0.00438976,-0.00177165 -0.00111024,2.75591e-005 -0.00214173,0.000291339 -0.00304331,0.000874016 -0.000897638,0.000551181 -0.0016378,0.00129528 -0.00216535,0.00222047 -0.000531496,0.000952756 -0.000795276,0.00195669 -0.000822835,0.00309449l0 0.0712598zm0.151091 -0.0401535c0.00042126,-0.00401969 0.00135039,-0.00774803 0.00283071,-0.0111339 0.00148031,-0.00338583 0.00338583,-0.00632283 0.00574016,-0.00883465 0.00235433,-0.00251181 0.00505118,-0.0044685 0.00812205,-0.00584646 0.00306693,-0.00140157 0.00637402,-0.00209055 0.00997244,-0.00211417 0.00409843,2.3622e-005 0.00769685,0.000791339 0.0108189,0.00227165 0.00311811,0.00148425 0.00576378,0.00351969 0.00793307,0.00608661 0.00216929,0.00259055 0.0038622,0.00555512 0.0051063,0.00891339 0.00124409,0.00335827 0.00200787,0.00690157 0.00232677,0.0106575l-0.0528465 0 -3.93701e-006 0zm0.0595157 0.0350748c0.000633858,-0.000551181 0.00111024,-0.00118898 0.00142913,-0.00185039 0.000314961,-0.000688976 0.000476378,-0.00140157 0.000476378,-0.00211417 -2.75591e-005,-0.00145669 -0.000555118,-0.00270079 -0.00156299,-0.00370472 -0.00100394,-0.000980315 -0.00229921,-0.00150787 -0.00383465,-0.00153543 -0.000712598,0 -0.00135039,0.00015748 -0.00192913,0.00042126 -0.000555118,0.00026378 -0.00108661,0.000610236 -0.00156299,0.00100787 -0.00201181,0.00187795 -0.00417717,0.00351575 -0.00655906,0.00494488 -0.00235433,0.00142913 -0.00494488,0.00253937 -0.00777953,0.00333465 -0.00282677,0.000818898 -0.00592126,0.00121654 -0.00930709,0.00124409 -0.00367717,0 -0.00714173,-0.000610236 -0.0104213,-0.00185433 -0.00327953,-0.00121654 -0.00624409,-0.00301181 -0.00883858,-0.00537008 -0.00261417,-0.00235433 -0.00475984,-0.00526378 -0.0064252,-0.00870079 -0.00166535,-0.00346457 -0.00275197,-0.00740551 -0.00319685,-0.0118504l0.0593543 0c0.0010315,0 0.00195669,-0.00026378 0.00283071,-0.000740157 0.000846457,-0.000476378 0.00153543,-0.00116535 0.00206299,-0.00201181 0.000527559,-0.00084252 0.000791339,-0.00185039 0.000818898,-0.00296063 0,-0.00436614 -0.000555118,-0.00859843 -0.00164173,-0.0126732 -0.00105906,-0.00407087 -0.00266929,-0.00785433 -0.00475984,-0.011374 -0.00211417,-0.00348819 -0.00470866,-0.0065315 -0.00777953,-0.00914961 -0.00309055,-0.00264567 -0.0066378,-0.0046811 -0.0106299,-0.0061378 -0.00399213,-0.00148031 -0.00841339,-0.00222047 -0.0132756,-0.00224803 -0.00571654,2.75591e-005 -0.0109528,0.00116535 -0.0157165,0.00333465 -0.00478346,0.00219291 -0.00893701,0.00523622 -0.0124803,0.00914961 -0.00351969,0.00388976 -0.00627165,0.00841339 -0.00820472,0.0135709 -0.00195669,0.00512992 -0.00293701,0.010685 -0.00296063,0.0166378l0 0.000318898c2.3622e-005,0.00637402 0.00111024,0.0121693 0.00322835,0.017378 0.00211417,0.00520866 0.00505118,0.00970472 0.00880709,0.0134882 0.00372835,0.00378346 0.00806693,0.00669291 0.0130118,0.00872835 0.00492126,0.00203937 0.0102362,0.00306693 0.0159016,0.00309843 0.00462992,-2.75591e-005 0.00880709,-0.000531496 0.0125079,-0.00156299 0.00370472,-0.00100394 0.00706299,-0.00243307 0.0100512,-0.00428346 0.00301575,-0.00185433 0.00582283,-0.00402362 0.00838583,-0.00653543l0 0z"/>
   <g id="_166967360">
    <path id="_166968992" class="fil2" d="M0.109154 0.0765984c0.000287402,0.000712598 0.0340433,0.0144094 0.0613858,0.0727598l-0.0520197 0c0,0 -0.00670866,-0.0346102 -0.0697205,-0.0500591l0.0603543 -0.0227008z"/>
    <path id="_166968104" class="fil3" d="M0.108874 0.0793937l-0.051874 0.0195118c0.0191929,0.00557087 0.0387756,0.0147283 0.0521457,0.0295394 0.00404724,0.00448425 0.00935433,0.0119882 0.0113189,0.0184094l0.0460827 0c-0.00961811,-0.019685 -0.022315,-0.038874 -0.0385433,-0.053622 -0.00445669,-0.00404724 -0.00924016,-0.0078189 -0.0143307,-0.0110354 -0.00135827,-0.000858268 -0.00274016,-0.00167323 -0.00414567,-0.00245276 -0.000208661,-0.000114173 -0.000433071,-0.000228346 -0.000653543,-0.000346457l0 -3.93701e-006z"/>
    <path id="_166968560" class="fil4" d="M0.0733346 0.104571c0.0135079,0.00556693 0.026252,0.0132717 0.0358228,0.0238701 0.00404724,0.00448425 0.00935433,0.0119882 0.0113189,0.0184094l0.0173898 0c-0.00246457,-0.00592126 -0.0152874,-0.0338307 -0.0427126,-0.0459685 -0.0105039,-0.00464567 -0.0173504,-0.00191732 -0.0218189,0.00368898z"/>
    <path id="_166968656" class="fil5" d="M0.0992559 0.0764134c0.00287402,0.00164961 0.00582677,0.00378346 0.00847638,0.00575591 0.00712598,0.00530709 0.0138465,0.0112992 0.0200354,0.0176693 0.0141535,0.0145512 0.0256929,0.0312717 0.034189,0.0495276l-0.00215354 0c-0.00837008,-0.0177402 -0.0196496,-0.0339921 -0.0334331,-0.0481693 -0.00612205,-0.00629134 -0.0127598,-0.0122165 -0.0198031,-0.0174646 -0.00259055,-0.0019252 -0.00548031,-0.00401575 -0.00828346,-0.00562598l-0.000846457 -0.000488189 0.000972441 -0.00169291 0.000846457 0.000488189z"/>
    <polygon id="_166968152" class="fil6" points="0.0446614,0.00428346 0.0478071,0.00428346 0.0899606,0.00428346 0.0899606,0.0459961 0.0899606,0.0548701 0.0899606,0.149358 0.0446614,0.149358 0.0446614,0.0548701 "/>
    <polygon id="_166968176" class="fil7" points="0.0471772,0.00677559 0.0471772,0.146843 0.0874488,0.146843 0.0874488,0.00677559 "/>
    <path id="_166967816" class="fil8" d="M0.0874488 0.0400787l0 -0.0333031 -0.0371417 0c0.00873228,0.00548819 0.020248,0.0177795 0.0250079,0.0451339 0,0 0.00474803,-0.00609843 0.0121339,-0.0118268l0 -3.93701e-006z"/>
    <path id="_166968128" class="fil9" d="M0.0899606 0.10089l0 0.0484843 -0.0453071 0 0 -0.0131654c0.00188189,-0.0549528 0.0282441,-0.0838701 0.0427953,-0.095748l0 0.0604291 0.00251181 0z"/>
    <path id="_166969256" class="fil6" d="M0.0702598 0.149358l-0.0255984 0c0,0 -0.00333071,-0.111098 0.121083,-0.120315l0 0.00972441c-0.00133858,0.0202638 -0.00942913,0.034 -0.0281732,0.041752l-3.93701e-005 1.1811e-005 3.93701e-006 3.93701e-006c-0.0201299,0.00833071 -0.0442126,0.0270079 -0.047563,0.0688228l-0.0197126 0 0 0z"/>
    <path id="_166968488" class="fil10" d="M0.0876575 0.146843c0.00282283,-0.028122 0.015689,-0.0514213 0.0412087,-0.0650118 0.00342913,-0.00182677 0.00740945,-0.00357874 0.011626,-0.00511024l3.93701e-006 0c0.0179291,-0.00847244 0.0219606,-0.0263504 0.0227205,-0.0368228l0 -0.00811417c-0.043563,0.00381496 -0.081878,0.0216181 -0.102433,0.0620157 -0.00738189,0.0145039 -0.0135394,0.0360118 -0.0136417,0.0530433l0.0405157 0z"/>
    <path id="_166967528" class="fil11" d="M0.0876575 0.146843c0.00282283,-0.028122 0.015689,-0.0514213 0.0412087,-0.0650118 0.00342913,-0.00182677 0.00740945,-0.00357874 0.011626,-0.00511024l3.93701e-006 0c0.0128622,-0.00607874 0.0185709,-0.0169961 0.0210512,-0.0265551 -0.0365,0.00601575 -0.0677992,0.0217362 -0.0856732,0.0568583 -0.00556299,0.0109331 -0.00781102,0.0258465 -0.00862992,0.0398189l0.0204134 0 0 0z"/>
    <path id="_166969136" class="fil12" d="M0.0755 0.0501654c0.00201181,-0.0022874 0.0042874,-0.00453543 0.00644488,-0.00654331 0.00230315,-0.0021378 0.00545276,-0.00472047 0.00801969,-0.00665748 0,0.000744094 0,0.00149213 0,0.0024685 -0.00220079,0.00170866 -0.00470079,0.00376378 -0.00668898,0.00561811 -0.00261024,0.0024252 -0.00540945,0.00522441 -0.00766142,0.008l-0.00140945 0.00173622 -0.000311024 -0.0022126c-0.00198819,-0.0139646 -0.00662598,-0.0304134 -0.0172165,-0.0404567 -0.0027874,-0.00264173 -0.00800394,-0.00629921 -0.0120236,-0.00687402l0 -0.000984252c0.000874016,-8.26772e-005 0.00231102,-4.33071e-005 0.00370079,3.54331e-005 0.00360236,0.0014685 0.00731496,0.0041811 0.00966535,0.00640945 0.0104055,0.00986614 0.0152638,0.0255236 0.0174803,0.0394606l0 0z"/>
    <path id="_166967792" class="fil13" d="M0.153988 0.0302992c0.000251969,0.00686614 -0.000515748,0.0144803 -0.00235433,0.020311 -0.0019252,0.00611417 -0.0052874,0.011685 -0.0109173,0.0150276 -0.00558661,0.00331496 -0.0113622,0.00618504 -0.0169213,0.00962598 -0.00759055,0.00469685 -0.014626,0.0100433 -0.0208583,0.0164567 -0.015685,0.0161339 -0.0234252,0.0360394 -0.0259488,0.0576496l-0.00196063 0c0.00254331,-0.0221299 0.0104646,-0.0425 0.0265118,-0.0590079 0.00634646,-0.00652756 0.0135039,-0.0119764 0.0212323,-0.0167598 0.00557087,-0.00344882 0.0113504,-0.0063189 0.0169488,-0.00964173 0.00220079,-0.00130709 0.00406693,-0.00301969 0.00561417,-0.00505118 0.00202362,-0.00264173 0.00344094,-0.00572441 0.00443701,-0.00888583 0.00175591,-0.00556299 0.00249606,-0.0128661 0.00227559,-0.0194567l0.00194094 -0.000267717 0 0z"/>
   </g>
  </g>
 </g>
</svg>
